<?xml version="1.0" encoding="UTF-8" standalone="no"?>
<!-- Created with Inkscape (http://www.inkscape.org/) -->

<svg
   xmlns:dc="http://purl.org/dc/elements/1.1/"
   xmlns:cc="http://creativecommons.org/ns#"
   xmlns:rdf="http://www.w3.org/1999/02/22-rdf-syntax-ns#"
   xmlns:svg="http://www.w3.org/2000/svg"
   xmlns="http://www.w3.org/2000/svg"
   xmlns:xlink="http://www.w3.org/1999/xlink"
   xmlns:sodipodi="http://sodipodi.sourceforge.net/DTD/sodipodi-0.dtd"
   xmlns:inkscape="http://www.inkscape.org/namespaces/inkscape"
   id="svg3955"
   height="24"
   width="24"
   version="1.1"
   inkscape:version="0.48.5 r10040"
   sodipodi:docname="mark.svg">
  <sodipodi:namedview
     pagecolor="#ffffff"
     bordercolor="#666666"
     borderopacity="1"
     objecttolerance="10"
     gridtolerance="10"
     guidetolerance="10"
     inkscape:pageopacity="0"
     inkscape:pageshadow="2"
     inkscape:window-width="640"
     inkscape:window-height="480"
     id="namedview27"
     showgrid="false"
     inkscape:zoom="9.8333333"
     inkscape:cx="12"
     inkscape:cy="12"
     inkscape:window-x="0"
     inkscape:window-y="32"
     inkscape:window-maximized="0"
     inkscape:current-layer="svg3955" />
  <defs
     id="defs3957">
    <linearGradient
       id="linearGradient2907"
       y2="35.051"
       gradientUnits="userSpaceOnUse"
       x2="23.47"
       gradientTransform="matrix(0.77056,0,0,0.77078,-4.5547,17.801)"
       y1="11.21"
       x1="23.47">
      <stop
         id="stop3644"
         style="stop-color:#fff"
         offset="0" />
      <stop
         id="stop3646"
         style="stop-color:#fff;stop-opacity:0"
         offset="1" />
    </linearGradient>
    <linearGradient
       id="linearGradient3683"
       y2="33.955"
       gradientUnits="userSpaceOnUse"
       x2="15.215"
       gradientTransform="matrix(0.48936,0,0,0.48936,1.7132,22.728)"
       y1="22.292"
       x1="11.566">
      <stop
         id="stop2687"
         style="stop-color:#fff;stop-opacity:.27451"
         offset="0" />
      <stop
         id="stop2689"
         style="stop-color:#fff;stop-opacity:0"
         offset="1" />
    </linearGradient>
    <radialGradient
       id="radialGradient3627"
       gradientUnits="userSpaceOnUse"
       cy="25.625"
       cx="13.139"
       gradientTransform="matrix(0,1.2347,-1.4763,0,46.159,-19.61)"
       r="13.931">
      <stop
         id="stop3692"
         style="stop-color:#ffeb9f"
         offset="0" />
      <stop
         id="stop3694"
         style="stop-color:#ffd57e"
         offset=".26238" />
      <stop
         id="stop3696"
         style="stop-color:#ffbc43"
         offset=".66094" />
      <stop
         id="stop3698"
         style="stop-color:#ff921a"
         offset="1" />
    </radialGradient>
    <linearGradient
       id="linearGradient3629"
       y2="9.58"
       gradientUnits="userSpaceOnUse"
       x2="21.483"
       gradientTransform="matrix(0.77056,0,0,0.77078,-4.5543,-14.199)"
       y1="36.255"
       x1="21.483">
      <stop
         id="stop3605"
         style="stop-color:#a7651c"
         offset="0" />
      <stop
         id="stop3607"
         style="stop-color:#c8a700"
         offset="1" />
    </linearGradient>
    <radialGradient
       id="radialGradient3953"
       gradientUnits="userSpaceOnUse"
       cx="62.625"
       cy="4.625"
       r="10.625"
       gradientTransform="matrix(1.0353,0,0,0.42353,-52.835,9.5412)">
      <stop
         id="stop8840"
         offset="0" />
      <stop
         id="stop8842"
         style="stop-opacity:0"
         offset="1" />
    </radialGradient>
    <linearGradient
       inkscape:collect="always"
       xlink:href="#linearGradient2907"
       id="linearGradient3005"
       gradientUnits="userSpaceOnUse"
       gradientTransform="matrix(0.77056,0,0,0.77078,-4.5543053,-6.199)"
       x1="23.47"
       y1="11.21"
       x2="23.47"
       y2="35.051" />
    <linearGradient
       inkscape:collect="always"
       xlink:href="#linearGradient3683"
       id="linearGradient3008"
       gradientUnits="userSpaceOnUse"
       gradientTransform="matrix(0.48936,0,0,0.48936,1.7135947,-1.272)"
       x1="11.566"
       y1="22.292"
       x2="15.215"
       y2="33.955" />
    <radialGradient
       inkscape:collect="always"
       xlink:href="#radialGradient3627"
       id="radialGradient3011"
       gradientUnits="userSpaceOnUse"
       gradientTransform="matrix(0,1.2347,-1.4763,0,46.159,-11.61)"
       cx="13.139"
       cy="25.625"
       r="13.931" />
    <linearGradient
       inkscape:collect="always"
       xlink:href="#linearGradient3629"
       id="linearGradient3013"
       gradientUnits="userSpaceOnUse"
       gradientTransform="matrix(0.77056,0,0,0.77078,-4.5543,-6.199)"
       x1="21.483"
       y1="36.255"
       x2="21.483"
       y2="9.58" />
    <radialGradient
       inkscape:collect="always"
       xlink:href="#radialGradient3953"
       id="radialGradient3016"
       gradientUnits="userSpaceOnUse"
       gradientTransform="matrix(1.0353,0,0,0.42353,-52.835,17.5412)"
       cx="62.625"
       cy="4.625"
       r="10.625" />
  </defs>
  <metadata
     id="metadata3960">
    <rdf:RDF>
      <cc:Work
         rdf:about="">
        <dc:format>image/svg+xml</dc:format>
        <dc:type
           rdf:resource="http://purl.org/dc/dcmitype/StillImage" />
        <dc:title />
      </cc:Work>
    </rdf:RDF>
  </metadata>
  <path
     inkscape:connector-curvature="0"
     d="m 12,1.4961 c 0.70891,0 2.9944,5.7107 3.5679,6.1275 0.57352,0.4168 6.7095,0.82636 6.9285,1.5008 0.21907,0.6744 -4.5043,4.6134 -4.7234,5.2878 -0.21906,0.6744 1.2876,6.6382 0.71412,7.055 -0.573,0.417 -5.778,-2.859 -6.487,-2.859 -0.70891,0 -5.9137,3.2763 -6.4872,2.8595 -0.5735,-0.418 0.9332,-6.3814 0.7141,-7.0558 -0.219,-0.6744 -4.9424,-4.6134 -4.7234,-5.2878 0.21907,-0.6744 6.355,-1.084 6.9285,-1.5008 0.57352,-0.4168 2.859,-6.1275 3.5679,-6.1275 z"
     style="fill:url(#radialGradient3011);stroke:url(#linearGradient3013);stroke-width:0.99226999;stroke-linejoin:round"
     id="path1307" />
  <path
     inkscape:connector-curvature="0"
     d="m 11.969395,2.094 c -0.45703,0.69348 -1.6798,2.6292 -3.0312003,5.8125 a 0.43671,0.43671 0 0 1 -0.344,0.282 c -2.1355,0.34821 -4.8092,0.71691 -6.5625,1.1562 1.1002,1.3189 2.3935,2.53 3.625,3.7812 l 15.1560003,-2.719 c 0.35324,-0.35381 0.69718,-0.69742 1.0625,-1.0625 -2.0515,-0.50749 -4.3657,-0.80824 -6.5,-1.1562 a 0.43671,0.43671 0 0 1 -0.34375,-0.25 c -1.0395,-2.4133 -2.5829,-5.037 -3.0625,-5.8438 z"
     style="opacity:0.8;fill:url(#linearGradient3008)"
     id="path3681" />
  <path
     inkscape:connector-curvature="0"
     d="m 12.000395,2.938 c -0.28939,0.49239 -0.61844,1.1655 -0.96875,1.875 -0.36191,0.73299 -0.74686,1.5115 -1.0625003,2.125 -0.1579,0.306 -0.2984,0.582 -0.4376,0.812 -0.1391,0.23 -0.1632,0.389 -0.5312,0.656 -0.36844,0.26776 -0.55054,0.25106 -0.8125,0.3125 -0.26196,0.06144 -0.56524,0.10073 -0.90625,0.15625 -0.68201,0.11103 -1.5021,0.22551 -2.3125,0.34375 -0.77421,0.11296 -1.5055,0.22189 -2.0625,0.34375 0.37803,0.42586 0.90754,0.98335 1.4688,1.5312 0.58458,0.57072 1.1709,1.1352 1.6562,1.625 0.24269,0.2449 0.4495,0.48405 0.625,0.6875 0.1755,0.20345 0.32836,0.28655 0.46875,0.71875 0.14071,0.43317 0.085066,0.57559 0.0625,0.84375 -0.0226,0.269 -0.0724,0.565 -0.125,0.907 -0.1053,0.683 -0.2681,1.505 -0.4063,2.313 -0.1323,0.773 -0.2563,1.525 -0.3124,2.093 0.5253,-0.229 1.2034,-0.567 1.9062,-0.937 0.7259,-0.382 1.4762,-0.782 2.0940003,-1.094 0.30879,-0.15604 0.56429,-0.30164 0.8125,-0.40625 0.24821,-0.10461 0.38716,-0.1875 0.84375,-0.1875 0.45659,0 0.59554,0.08289 0.84375,0.1875 0.24821,0.10461 0.50371,0.25021 0.8125,0.40625 0.61757,0.31209 1.3679,0.71173 2.0938,1.0938 0.70275,0.36985 1.3809,0.70796 1.9062,0.9375 -0.05615,-0.56796 -0.18016,-1.3203 -0.3125,-2.0938 -0.13814,-0.80738 -0.30096,-1.6295 -0.40625,-2.3125 -0.05265,-0.34152 -0.10243,-0.63809 -0.125,-0.90625 -0.02257,-0.26816 -0.0782,-0.41058 0.0625,-0.84375 0.14039,-0.4322 0.29325,-0.5153 0.46875,-0.71875 0.1755,-0.20345 0.38231,-0.4426 0.625,-0.6875 0.48538,-0.4898 1.0717,-1.0543 1.6562,-1.625 0.56121,-0.5479 1.0907,-1.1054 1.4688,-1.5312 -0.55696,-0.12186 -1.2883,-0.23079 -2.0625,-0.34375 -0.811,-0.118 -1.631,-0.233 -2.313,-0.344 -0.341,-0.056 -0.645,-0.095 -0.907,-0.156 -0.261,-0.062 -0.444,-0.045 -0.812,-0.313 -0.368,-0.267 -0.392,-0.426 -0.531,-0.656 -0.139,-0.23 -0.28,-0.506 -0.438,-0.812 -0.315,-0.614 -0.7,-1.393 -1.062,-2.126 -0.351,-0.709 -0.68,-1.382 -0.969,-1.874 z"
     style="opacity:0.4;fill:none;stroke:url(#linearGradient3005);stroke-width:0.99226999;stroke-linejoin:round"
     id="path2903" />
</svg>
